<?xml version="1.0" encoding="utf-8"?>
<!DOCTYPE svg PUBLIC "-//W3C//DTD SVG 20010904//EN" "http://www.w3.org/TR/2001/REC-SVG-20010904/DTD/svg10.dtd">
<svg version="1.0" xmlns="http://www.w3.org/2000/svg" width="32px" height="32px" viewBox="0 0 32 32" preserveAspectRatio="xMidYMid meet">
 <g fill="#00a7e9">
  <path d="M12.40 28.90 c-1.65 -2 -1.20 -3.25 3.65 -10.50 1.65 -2.40 2.95 -4.50 2.95 -4.60 0 -0.15 1.35 -2.35 2.95 -4.90 5.35 -8.30 6.40 -9.10 8.80 -6.65 2 1.95 2.60 0.60 -8.35 17.55 -1.90 2.90 -3.40 5.40 -3.40 5.60 0 0.25 -0.80 1.35 -1.80 2.50 -2 2.35 -3.50 2.65 -4.80 1z"/>
  <path d="M5.85 19.10 c-1.50 -1.65 -1 -3.30 2.65 -8.80 1.95 -2.95 3.50 -5.45 3.50 -5.60 0 -0.15 0.60 -1.05 1.40 -2 1.60 -2 3 -2.15 4.50 -0.55 1.95 2.10 1.90 2.30 -6.35 14.85 -1.45 2.20 -2.10 2.80 -3.35 2.90 -1 0.10 -1.80 -0.15 -2.35 -0.80z"/>
  <path d="M0.85 7.10 c-1.50 -1.65 -1 -3.20 1.50 -4.50 2.45 -1.35 4.95 1.50 3.70 4.20 -0.40 0.95 -0.90 1.20 -2.45 1.20 -1.25 0 -2.25 -0.35 -2.75 -0.90z"/>
 </g>
</svg>