<svg id="user" xmlns="http://www.w3.org/2000/svg" width="280" height="280" viewBox="0 0 280 280">
  <path id="Caminho_1" data-name="Caminho 1" d="M144.7,279.091c1.323,0,2.63-.062,3.943-.1C79.827,276.907,24.636,217.381,24.636,144.2S79.827,11.493,148.643,9.409c-1.313-.037-2.621-.1-3.943-.1C69.925,9.309,9.309,69.7,9.309,144.2S69.925,279.091,144.7,279.091Z" transform="translate(-4.2 -4.2)" fill="#fff"/>
  <path id="Caminho_2" data-name="Caminho 2" d="M143.764,255.2,103.6,277.24a35.96,35.96,0,0,0-6.446,4.616A133.945,133.945,0,0,0,270,282.3a35.942,35.942,0,0,0-7.081-4.774L219.913,255.9a16.509,16.509,0,0,1-9.068-14.757V224.166a65.278,65.278,0,0,0,4.069-5.261,99.774,99.774,0,0,0,13.368-27.1,13.578,13.578,0,0,0,9.579-12.927V160.766a13.541,13.541,0,0,0-4.5-10.039V124.539S238.7,83.782,183.83,83.782,134.3,124.539,134.3,124.539v26.189a13.541,13.541,0,0,0-4.5,10.039v18.115a13.6,13.6,0,0,0,6.226,11.4,90.062,90.062,0,0,0,16.287,33.887v16.553A16.514,16.514,0,0,1,143.764,255.2Z" transform="translate(-43.832 -38.8)" fill="#006dd3"/>
  <path id="Caminho_3" data-name="Caminho 3" d="M258.226,276.891l-56.911-21.628a16.5,16.5,0,0,1-9.12-14.757V223.532a65.327,65.327,0,0,0,4.092-5.261,99.542,99.542,0,0,0,13.445-27.1,13.588,13.588,0,0,0,9.634-12.927V160.132a13.509,13.509,0,0,0-4.528-10.039V123.9s5.377-40.757-49.814-40.757c-3.285,0-6.342.153-9.212.425a5.908,5.908,0,0,1-3.63,6.211,142.615,142.615,0,0,0-19.131,9.583,5.254,5.254,0,0,1,4.349,5.2c1.1,18.809-5.37,40.894-11.186,60.12.179,7.57.345,15.142.565,22.712.559,1.747,1.12,3.494,1.668,5.243a5.906,5.906,0,0,1,2.368,2.738c2.334,5.558,4.936,11.254,7.193,17.055a6.265,6.265,0,0,1,7.5,3.7,68.41,68.41,0,0,1,3.71,17.435,4.4,4.4,0,0,1-2.2,4.423,76.127,76.127,0,0,1-14.1,26.946,5.571,5.571,0,0,1-9.238-2.438,27.537,27.537,0,0,1-.667-2.887c-3.8,2.256-7.872,4.228-12.269,6.69-2.361,1.322-20.3,9.557-20.748,11.6-2.535,11.559,37.989,25.895,58.334,34a135.811,135.811,0,0,0,16.7,1.149c32.975,0,76.84-11.8,100.324-31.392a36.183,36.183,0,0,0-7.122-4.774Z" transform="translate(-41.015 -38.514)" fill="#006dd3" opacity="0.5"/>
  <g id="Grupo_1" data-name="Grupo 1">
    <path id="Caminho_4" data-name="Caminho 4" d="M140,280A140,140,0,1,1,280,140,140,140,0,0,1,140,280Zm0-269.818A129.818,129.818,0,1,0,269.818,140,129.819,129.819,0,0,0,140,10.182Z" fill="#006dd3"/>
    <path id="Caminho_5" data-name="Caminho 5" d="M179.628,313.6a139.749,139.749,0,0,1-89.986-32.9,5.093,5.093,0,0,1-.064-7.726,40.994,40.994,0,0,1,7.359-5.227L137.116,245.8a11.348,11.348,0,0,0,5.9-9.962V221.121a95.559,95.559,0,0,1-15.715-32.5,18.531,18.531,0,0,1-6.808-14.354V156.226A18.542,18.542,0,0,1,125,144.172V120.427a41.073,41.073,0,0,1,9.567-29.836c9.364-10.7,24.524-16.118,45.057-16.118s35.693,5.421,45.057,16.118a41.075,41.075,0,0,1,9.567,29.836v23.745a18.544,18.544,0,0,1,4.506,12.054v18.036A18.469,18.469,0,0,1,228.163,191a103.821,103.821,0,0,1-13.294,26.065c-1.087,1.535-2.139,2.927-3.136,4.159v15.045A11.281,11.281,0,0,0,218,246.405l43.023,21.539a40.819,40.819,0,0,1,8.083,5.416,5.09,5.09,0,0,1-.02,7.8A139.764,139.764,0,0,1,179.628,313.6Zm-78.364-36.618a129.362,129.362,0,0,0,156.067.512c-.288-.154-.57-.3-.859-.447L213.45,255.508a21.4,21.4,0,0,1-11.88-19.243v-16.9a5.088,5.088,0,0,1,1.26-3.354,61.03,61.03,0,0,0,3.741-4.829,94.08,94.08,0,0,0,12.683-25.6,5.086,5.086,0,0,1,3.339-3.3,8.5,8.5,0,0,0,6-8.015V156.226a8.314,8.314,0,0,0-2.829-6.221,5.088,5.088,0,0,1-1.677-3.776V120.15a4.942,4.942,0,0,1,.045-.666,31.175,31.175,0,0,0-7.181-22.289c-7.363-8.322-19.918-12.545-37.326-12.545-17.477,0-30.066,4.258-37.415,12.65a30.684,30.684,0,0,0-7.091,22.185,4.94,4.94,0,0,1,.045.666v26.08a5.088,5.088,0,0,1-1.677,3.776,8.314,8.314,0,0,0-2.829,6.221v18.036a8.423,8.423,0,0,0,3.906,7.08,5.1,5.1,0,0,1,2.193,3.135A85.025,85.025,0,0,0,152.007,216.1a5.139,5.139,0,0,1,1.176,3.26v16.48a21.518,21.518,0,0,1-11.2,18.9h0L101.8,276.68C101.621,276.778,101.443,276.877,101.264,276.982Z" transform="translate(-39.629 -33.6)" fill="#006dd3"/>
  </g>
</svg>
